<svg xmlns="http://www.w3.org/2000/svg" xml:space="preserve" preserveAspectRatio="xMidYMid meet" version="1.1" width="2500" height="900" viewBox="0 0 500 180">
  <metadata>
    Created by Miguel Rivas — Learn more at jmiguelrivas.github.io
  </metadata>
  <defs>
    <pattern id="stars" width="125" height="125" patternUnits="userSpaceOnUse">
      <g opacity="0.5" fill="#fff" transform="scale(.25)">
        <rect width="3" height="3" x="007" y="011" />
        <rect width="3" height="3" x="016" y="156" />
        <rect width="3" height="3" x="024" y="058" />
        <rect width="3" height="3" x="026" y="283" />
        <rect width="3" height="3" x="028" y="219" />
        <rect width="3" height="3" x="036" y="461" />
        <rect width="3" height="3" x="037" y="272" />
        <rect width="3" height="3" x="038" y="391" />
        <rect width="3" height="3" x="039" y="473" />
        <rect width="3" height="3" x="041" y="096" />
        <rect width="3" height="3" x="056" y="329" />
        <rect width="3" height="3" x="059" y="036" />
        <rect width="3" height="3" x="064" y="191" />
        <rect width="3" height="3" x="069" y="112" />
        <rect width="3" height="3" x="077" y="115" />
        <rect width="3" height="3" x="079" y="204" />
        <rect width="3" height="3" x="083" y="272" />
        <rect width="3" height="3" x="087" y="448" />
        <rect width="3" height="3" x="094" y="231" />
        <rect width="3" height="3" x="094" y="356" />

        <rect width="3" height="3" x="103" y="023" />
        <rect width="3" height="3" x="108" y="149" />
        <rect width="3" height="3" x="109" y="411" />
        <rect width="3" height="3" x="109" y="055" />
        <rect width="3" height="3" x="112" y="352" />
        <rect width="3" height="3" x="113" y="099" />
        <rect width="3" height="3" x="116" y="320" />
        <rect width="3" height="3" x="125" y="247" />
        <rect width="3" height="3" x="129" y="460" />
        <rect width="3" height="3" x="135" y="476" />
        <rect width="3" height="3" x="142" y="199" />
        <rect width="3" height="3" x="149" y="141" />
        <rect width="3" height="3" x="159" y="331" />
        <rect width="3" height="3" x="162" y="361" />
        <rect width="3" height="3" x="164" y="075" />
        <rect width="3" height="3" x="165" y="027" />
        <rect width="3" height="3" x="167" y="290" />
        <rect width="3" height="3" x="168" y="427" />
        <rect width="3" height="3" x="179" y="070" />
        <rect width="3" height="3" x="183" y="248" />
        <rect width="3" height="3" x="186" y="207" />
        <rect width="3" height="3" x="199" y="319" />
        <rect width="3" height="3" x="199" y="444" />

        <rect width="3" height="3" x="202" y="105" />
        <rect width="3" height="3" x="210" y="406" />
        <rect width="3" height="3" x="217" y="195" />
        <rect width="3" height="3" x="219" y="370" />
        <rect width="3" height="3" x="224" y="253" />
        <rect width="3" height="3" x="224" y="032" />
        <rect width="3" height="3" x="230" y="144" />
        <rect width="3" height="3" x="232" y="479" />
        <rect width="3" height="3" x="240" y="430" />
        <rect width="3" height="3" x="246" y="306" />
        <rect width="3" height="3" x="249" y="111" />
        <rect width="3" height="3" x="251" y="344" />
        <rect width="3" height="3" x="268" y="215" />
        <rect width="3" height="3" x="275" y="379" />
        <rect width="3" height="3" x="283" y="259" />
        <rect width="3" height="3" x="286" y="074" />
        <rect width="3" height="3" x="290" y="422" />
        <rect width="3" height="3" x="296" y="017" />

        <rect width="3" height="3" x="304" y="269" />
        <rect width="3" height="3" x="305" y="476" />
        <rect width="3" height="3" x="312" y="293" />
        <rect width="3" height="3" x="314" y="367" />
        <rect width="3" height="3" x="314" y="137" />
        <rect width="3" height="3" x="319" y="202" />
        <rect width="3" height="3" x="321" y="440" />
        <rect width="3" height="3" x="334" y="329" />
        <rect width="3" height="3" x="340" y="101" />
        <rect width="3" height="3" x="347" y="280" />
        <rect width="3" height="3" x="348" y="417" />
        <rect width="3" height="3" x="363" y="384" />
        <rect width="3" height="3" x="363" y="032" />
        <rect width="3" height="3" x="366" y="190" />
        <rect width="3" height="3" x="370" y="233" />
        <rect width="3" height="3" x="374" y="480" />
        <rect width="3" height="3" x="375" y="373" />

        <rect width="3" height="3" x="402" y="124" />
        <rect width="3" height="3" x="402" y="444" />
        <rect width="3" height="3" x="402" y="078" />
        <rect width="3" height="3" x="404" y="315" />
        <rect width="3" height="3" x="409" y="398" />
        <rect width="3" height="3" x="411" y="343" />
        <rect width="3" height="3" x="413" y="220" />
        <rect width="3" height="3" x="418" y="402" />
        <rect width="3" height="3" x="427" y="160" />
        <rect width="3" height="3" x="427" y="051" />
        <rect width="3" height="3" x="430" y="263" />
        <rect width="3" height="3" x="432" y="210" />
        <rect width="3" height="3" x="435" y="247" />
        <rect width="3" height="3" x="436" y="472" />
        <rect width="3" height="3" x="436" y="021" />
        <rect width="3" height="3" x="447" y="019" />
        <rect width="3" height="3" x="450" y="362" />
        <rect width="3" height="3" x="452" y="273" />
        <rect width="3" height="3" x="453" y="441" />
        <rect width="3" height="3" x="457" y="197" />
        <rect width="3" height="3" x="464" y="132" />
        <rect width="3" height="3" x="471" y="414" />
        <rect width="3" height="3" x="472" y="302" />
        <rect width="3" height="3" x="480" y="070" />
        <rect width="3" height="3" x="482" y="480" />
        <rect width="3" height="3" x="483" y="014" />
        <rect width="3" height="3" x="491" y="023" />
      </g>
    </pattern>
  </defs>
  <rect class="jmiguelrivas-github-io" width="500" height="200" x="0" y="0" fill="#364e8c" rx="0" ry="0"/>
  <rect class="stars" width="200%" height="200%" x="0" y="0" fill="url(#stars)" rx="0" ry="0">
    <animateTransform attributeName="transform" attributeType="XML" type="translate" begin="-2s" from="-125,-125" to="0,0" dur="100s" repeatCount="indefinite"/>
  </rect>
  <g>
    <path fill="none" stroke="#fffad2" stroke-linecap="round" stroke-linejoin="round" stroke-width="2" stroke-dashoffset="400" stroke-dasharray="400" d="m360.815-26.245 68.596 57.499-83.266 53.455 149.71 64.178L368.678 278.14">
      <animate attributeName="stroke-dashoffset" values="1200;400;400" keyTimes="0;0.02;1" dur="20s" repeatCount="indefinite" calcMode="linear" />
    </path>
    <path fill="none" stroke="#fffad2" stroke-dashoffset="400" stroke-dasharray="400" stroke-linecap="round" stroke-linejoin="round" stroke-width="2" d="m175.68-33.874 56.143 67.272-53.692 71.008 31.25 135.748">
      <animate attributeName="stroke-dashoffset" values="1200;400;400" keyTimes="0;0.03;1" dur="20s" repeatCount="indefinite" calcMode="linear" />
    </path>
    <path fill="none" stroke="#fffad2" stroke-dashoffset="400" stroke-dasharray="400" stroke-linecap="round" stroke-linejoin="round" stroke-width="2" d="M76.473-31.013 26.117 38.429l53.32 27.834-47.258 71.614 50.972 85.057">
      <animate attributeName="stroke-dashoffset" values="1200;400;400" keyTimes="0;0.01;1" dur="20s" repeatCount="indefinite" calcMode="linear" />
    </path>
    <path fill="none" stroke="#fffad2" stroke-dashoffset="400" stroke-dasharray="400" stroke-linecap="round" stroke-linejoin="round" stroke-width="2" d="m281.226-34.073 60.977 67.523-3.811 70.885 114.92 9.198 45.686 103.162">
      <animate attributeName="stroke-dashoffset" values="1200;400;400" keyTimes="0;0.005;1" dur="20s" repeatCount="indefinite" calcMode="linear" />
    </path>
    <path fill="none" stroke="#fffad2" stroke-dashoffset="400" stroke-dasharray="400" stroke-linecap="round" stroke-linejoin="round" stroke-width="2" d="M224.792-37.088 145.69 25.078l23.719 26.882-60.286 47.093 11.632 111.043">
      <animate attributeName="stroke-dashoffset" values="1200;400;400" keyTimes="0;0.002;1" dur="20s" repeatCount="indefinite" calcMode="linear" />
    </path>
    <path fill="none" stroke="#fffad2" stroke-dashoffset="400" stroke-dasharray="400" stroke-linecap="round" stroke-linejoin="round" stroke-width="2" d="m9.106-35.477 75.55 83.22-51.535 56.62 60.175 90.697">
      <animate attributeName="stroke-dashoffset" values="1200;400;400" keyTimes="0;0.04;1" dur="20s" repeatCount="indefinite" calcMode="linear" />
    </path>
    <path fill="none" stroke="#fffad2" stroke-dashoffset="400" stroke-dasharray="400" stroke-linecap="round" stroke-linejoin="round" stroke-width="2" d="M145.172-28.105 99.363 31.958l53.384 95.507-47.93 82.53">
      <animate attributeName="stroke-dashoffset" values="1200;400;400" keyTimes="0;0.05;1" dur="20s" repeatCount="indefinite" calcMode="linear" />
    </path>
    <path fill="none" stroke="#fffad2" stroke-dashoffset="400" stroke-dasharray="400" stroke-linecap="round" stroke-linejoin="round" stroke-width="2" d="m254.238-29.889 38.525 127.515-37.399 118.624">
      <animate attributeName="stroke-dashoffset" values="1200;400;400" keyTimes="0;0.03;1" dur="20s" repeatCount="indefinite" calcMode="linear" />
    </path>
    <path fill="none" stroke="#fffad2" stroke-dashoffset="400" stroke-dasharray="400" stroke-linecap="round" stroke-linejoin="round" stroke-width="2" d="m491.274-24.18-53.537 88.765-121.471 41.574 52.402 123.81">
      <animate attributeName="stroke-dashoffset" values="1200;400;400" keyTimes="0;0.008;1" dur="20s" repeatCount="indefinite" calcMode="linear" />
    </path>
  </g>
  <path fill="#3241a3" fill-opacity=".713" d="M388.456 46.14a68.902 50.825 0 0 1 14.54 1.473 68.902 50.825 0 0 1 49.123 34.144 19.249 20.45 0 0 1 6.025.54 19.249 20.45 0 0 1 11.934 9.462 37.238 29.294 0 0 1 18.628-.151 37.238 29.294 0 0 1 28.166 30.459 26.16 25.499 0 0 1 9.391 11.658 44.715 19.745 0 0 1 15.152.485 44.715 19.745 0 0 1 29.357 10.467 38.24 26.366 0 0 1 43.704-14.248 38.24 26.366 0 0 1 9.149 2.48 15.637 13.23 0 0 1 18.79-9.204 15.637 13.23 0 0 1 3.365 1.073 23.967 18.69 0 0 1 21.108-3.788 23.967 18.69 0 0 1 17.533 22.523l-.147.452a23.967 18.69 0 0 1-17.437 13.315 16.177 11.952 0 0 1-.441 2.62l-.103.29a16.177 11.952 0 0 1-19.716 8.469 16.177 11.952 0 0 1-6.132-2.297 38.24 26.366 0 0 1-31.884 15.917 40.537 27.306 0 0 1-.287.951l-.25.662a40.537 27.306 0 0 1-46.143 19.822 49.417 29.4 0 0 1-1.198 4.548l-.302.71a49.417 29.4 0 0 1-60.23 20.836 49.417 29.4 0 0 1-33.909-18.327 42.43 23.11 0 0 1-22.691.187 42.43 23.11 0 0 1-30.775-17.547 46.688 32.388 0 0 1-32.123 2.186 46.688 32.388 0 0 1-15.193-4.913 38.366 28.475 0 0 1-37.477 7.91 38.366 28.475 0 0 1-14.512-5.463 50.784 31.473 0 0 1-40.49 4.068 50.784 31.473 0 0 1-37.888-31.962 23.537 21.398 0 0 1-15.174-25.52 23.537 21.398 0 0 1 28.475-15.494 23.537 21.398 0 0 1 13.29 8.108 29.04 20.917 0 0 1 29.753-11.18 43.502 29.69 0 0 1 27.023-16.523 68.902 50.825 0 0 1 1.18-20.935 68.902 50.825 0 0 1 68.816-38.263z">
    <animateTransform attributeName="transform" attributeType="XML" calcMode="spline" dur="5s" keySplines=".42,0,.58,1; .42,0,.58,1" keyTimes="0; 0.5; 1" repeatCount="indefinite" type="translate" values="0,0; -1,-3; 0,0"/>
  </path>
  <path fill="#2b50ec" fill-opacity=".262" d="M124.594 13.993a55.456 44.65 0 0 0-11.701 1.29 55.456 44.65 0 0 0-40.561 53.815l.343 1.081a55.456 44.65 0 0 0 .087.233 45.954 39.037 0 0 0-26.095-1.026 45.954 39.037 0 0 0-33.609 47.051l.285.947a45.954 39.037 0 0 0 3.718 8.07 41.706 37.833 0 0 0-21.504 42.527l.257.916a41.706 37.833 0 0 0 50.83 26.806 41.706 37.833 0 0 0 5.175-1.56 50.482 43.044 0 0 0 24.587 17.6 44.785 25.981 0 0 0 54.363 18.007 44.785 25.981 0 0 0 16.818-4.927 47.458 32.523 0 0 0 50.245 12.238 47.458 32.523 0 0 0 21.472-8.417 60.352 40.742 0 0 0 60.38 12.405 60.352 40.742 0 0 0 27.37-10.58 71.046 36.617 0 0 0 67.052 8.96 71.046 36.617 0 0 0 53-37.204 56.218 48.618 0 0 0 41.347 4.489 56.218 48.618 0 0 0 37.568-28.121 26.388 23.43 0 0 0 7.852-.735 26.388 23.43 0 0 0 18.903-28.452 26.388 23.43 0 0 0-.427-1.275 38.077 30.77 0 0 0 26.625-37.221 38.077 30.77 0 0 0-46.064-22.27 38.077 30.77 0 0 0-22.78 13.146 62.377 50.521 0 0 0-56.522-11.362 62.377 50.521 0 0 0-26.553 11.394 96.384 61.595 0 0 0-49.767-14.28 47.264 38.86 0 0 0-48.887-14.11 47.264 38.86 0 0 0-23.167 11.209 120.66 44.473 0 0 0-44.133-16.333 41.267 34.848 0 0 0-.438-1.618 41.267 34.848 0 0 0-49.926-25.228 41.267 34.848 0 0 0-11.512 4.067 55.456 44.65 0 0 0-54.63-31.528Z">
    <animateTransform attributeName="transform" attributeType="XML" calcMode="spline" dur="10s" keySplines=".42,0,.58,1; .42,0,.58,1" keyTimes="0; 0.5; 1" repeatCount="indefinite" type="translate" values="0,0; -10,-3; 0,0"/>
  </path>
  <g transform="matrix(.61224 0 0 .61224 62.134 66.703)">
    <path fill="#7deaea" d="m368.553 215.809 27.472-22.256s-28.151 8.621-33.752 8.183c-5.6-.437-15.02 1.161-23.559-.686-8.534-1.847-41.05-2.931-44.846-1.336-3.8 1.591-16.426 8.744-14.062 12.368 2.36 3.627 9.384 12.275 18.535 14.898 9.155 2.62 70.212-11.171 70.212-11.171z"/>
    <path fill="#0b0d1b" d="M269.116 224.297s15.949 10.452 25.133 14.477c9.192 4.029 31.839-2.155 38.613-3.216 6.77-1.061 38.158-20.757 38.158-20.757s-19.513-4.201-26.762-3.74c-7.248.457-24.202.666-29.935-.756-5.736-1.426-29.202-14.225-35.479-11.629-6.273 2.596-9.728 25.621-9.728 25.621z"/>
    <path fill="#705cd9" d="M307.161 208.663s3.986 3.654 15.512 4.825c11.522 1.17 18.853-.56 22.899-.03 4.045.53 22.613 3.462 22.613 3.462l3.797-2.185s-12.985-3.98-21.801-4.33c-8.82-.35-24.13.437-28.092.125-3.96-.315-14.66-4.556-14.66-4.556s-2.237 1.622-.268 2.69z"/>
    <path fill="#75e1e2" d="M-201.577 111.042s28.34 10.462 31.374 14.457c3.034 4.003 12.302 17.58 12.302 17.58s4.858-5.36 7.175-6.93c2.318-1.564 8.104-4.336 8.104-4.336s-4.343-9.941-6.267-13.486c-1.923-3.541-3.64-10.955-3.932-12.51-.289-1.552-.272-14.73.418-17.183.686-2.453 11.77-11.778 11.77-11.778s7.816 41.83 11.672 46.359c3.857 4.533 31.335 26.672 31.335 26.672l9.102 10.425s-6.708 7.835-22.017 7.408c-15.31-.428-57.231-1.715-60.265-3.625-3.03-1.913-30.77-53.053-30.77-53.053z"/>
    <path fill="#161836" d="M-229.3 78.362c-3.058 5.226 5.802 9.748 9.045 19.51 3.243 9.765 15.047 43.755 19.888 53.567 4.838 9.808 17.07 33.112 48.982 43.596 31.914 10.485 73.544-17.259 80.58-16.148 7.03 1.111 40.831 15.104 174.677 30.522 133.85 15.422 234.007-47.416 241.424-59.668 12.6-20.803 11.573-40.977 4.417-50.51-7.156-9.532-18.283 11.606-28.92 8.426-10.634-3.177-40.997-30.13-66.068-36.514-25.068-6.383-57.191-6.658-73.356-2.01-16.168 4.65-62.476 38.272-108.357 52.616-45.878 14.344-97.69 32.187-121.757 29.073-24.06-3.113-39.02-4.483-45.602-15.19-6.582-10.71-30.77-40.963-33.062-62.692-2.294-21.728-6.864-41.414-6.864-41.414s-9.068 22.16-9.39 45.195c-.318 23.038 7.752 49.624 12.988 55.99 5.232 6.367 36.762 25.89 36.762 25.89s-22.666-2.03-29.046-1.416c-6.373.61-22.74 5.359-22.74 5.359s-12.116-8.512-16.751-11.815c-4.636-3.302-15.85-5.859-15.85-5.859s-18.283-41.232-24.132-46.753c-5.85-5.524-27.432-28.559-26.868-19.755z"/>
    <path fill="#5c75d9" d="M-52.196 183.775s-13.2-10.637-10.608-19.892c2.597-9.25 7.361-14.506 7.361-14.506l-19.317-1.983-5.19 22.557zm211.84-103.467s17.12-9.735 29.411-10.22c12.295-.48 27.571 1.41 35.055 6.268 7.484 4.85 21.414 28.937 37.926 32.296 16.513 3.359 36.862 5.153 39.757 5.48 2.898.332 10.876 9.524 4.161 12.535-6.714 3.007-11.894-2.766-11.894-2.766s-1.425 10.883 10.16 13.257c11.589 2.374 32.134-21.122 40.21-21.46 8.082-.332 11.082 26.503 11.082 26.503s4.755-25.75 2.474-33.659c-2.281-7.908-12.083-24.968-19.696-23.224-2.314.53-3.923 5.405-3.923 5.405s-31.288-15.939-46.106-23.837c-14.818-7.895-41.259-15.243-73.644-9.689-32.389 5.554-50.324 15.452-58.905 20.442-8.582 4.99 3.932 2.67 3.932 2.67z"/>
    <path fill="#334bba" d="M252.407 63.262c-2.885 2.51.249 23.84 13.927 30.578 13.677 6.738 30.9 13.28 44.1 11.396 13.203-1.883 17.915-5.61 19.838-7.759 1.924-2.155 5.375-5.13 3.396-6.654-1.98-1.529-60-33.798-81.26-27.558z"/>
    <path fill="#9bf8fe" d="M322.746 88.697s-7.723 8.94-31.103 2.563c-23.383-6.38-22.292-31.095-19.344-37.084 2.948-5.988 16.595-20.79 22.057-24.603 5.457-3.813 10.995-6.2 11.79-7.437.796-1.24 3.711-8.36 4.762-8.96 1.048-.597 7.527 3.011 9.012 8.038 1.483 5.03-.258 14.228-.258 14.228s16.091-3.787 24.013-12.385c7.918-8.597 22.607-56.939 28.353-57.738 5.75-.802 8.227 6.101 8.436 16.606.212 10.498 1.9 40.5-6.141 51.196-8.038 10.703-20.134 12.202-30.82 20.93-10.687 8.72-17.07 19.805-20.757 34.65z"/>
    <path fill="#40bcc3" d="M296.259 90.03s6.234.156 10.71-2.148c4.473-2.302 11.476-22.153 16.788-27.565 5.312-5.405 15.398-13.976 22.325-16.579 6.93-2.603 17.23-6.406 22.405-13.114 5.173-6.711 8.906-24.941 8.555-34.342-.345-9.397-2.162-16.25-2.162-16.25s1.054 24.324-6.545 37.18c-7.594 12.855-11.118 15.998-28.57 23.21-17.45 7.212-33.768 19.514-38.25 27.084-4.477 7.57-5.183 13.83-8.589 14.944-3.408 1.114-8.952 2.961 3.333 7.58z"/>
    <path fill="#2eacb7" d="M306.024 45.74s5.206-5.722 8.33-7.337c3.12-1.615 5.235-2.553 5.338-3.09.1-.537.364-2.537.364-2.537s-5.617 1.648-4.207-3.707c.613-2.321.915-7.427-.053-9.424-.969-1.996-2.249-1.266-3.034 4.848-.786 6.115-1.8 12.15-3.502 13.907-1.7 1.757-4.019 5.017-3.233 7.34z"/>
    <path fill="#5868df" d="M173.892 96.39s12.786 33.397 38.155 44.352c25.37 10.956 38.497 4.032 42.509 3.538 4.012-.494 14.98-2.281 14.98-2.281s-5.583 2.851-5.838 8.19c-.256 5.345 5.776 5.743 8.08 5.418 2.305-.325 10.511-6.784 15.084-7.65 4.572-.862 10.222-.902 8.246-2.851-1.976-1.953-13.794-8.794-14.689-10.223-.892-1.429-10.093-21.858-13.528-25.187-3.435-3.329-20.35-8.044-31.335-4.794-10.992 3.25-18.787 8.667-28.081 6.548-9.295-2.122-27.097-5.736-33.583-15.06z"/>
    <path fill="#160703" d="M215.635 117.266s4.234 4.593 7.063 8.963c2.835 4.367 11.631 11.44 17.129 12.12 5.498.676 16.138-1.649 20.73-2.249 4.593-.597 11.894-4.218 13.788-3.581 1.896.637-5.836-19.381-18.977-22.481-13.14-3.107-27.843 5.716-32.518 6.14-4.675.425-7.218 1.088-7.218 1.088z"/>
    <path fill="#fffb80" d="M226.428 121.328s2.769 7.7 6.074 10.007c3.306 2.308 10.316 5.637 19.395 3.658 9.078-1.98 19.533-3.273 18.631-5.143-.905-1.874-7.01-10.359-13.668-12.219-9.327-2.606-14.815-1.068-20.531-.15-5.717.92-9.901 3.847-9.901 3.847z"/>
    <path fill="#ebeaf9" d="M355.28 143.04s.746-28.005-8.256-28.274c-9.006-.265-26.815 16.377-30.691 18.18-3.876 1.801-21.221 13.46-38.53 23.364-17.309 9.9-35.917 20.74-81.954 27.843-46.04 7.099-156.197 30.986-198.802 19.298-42.608-11.685-72.583-11.072-72.583-11.072s48.895 15.34 94.62 26.189 94.69 24.735 129.15 24.328c38.779-.461 84.09 6.631 131.917-17.63 47.827-24.266 72.702-68.525 75.13-82.226z"/>
    <path fill="#5c67d9" d="M34.081 133.779s18.184 1.933 30.943 1.674c12.76-.255 23.864-3.773 26.096-3.368 2.234.407 14.367 19.417 14.367 19.417s8.953-23.227 11.367-24.869c2.417-1.644 28.532-13.996 35.114-24.745 6.582-10.744 11.24-29.531 9.699-29.975-1.545-.448-45.977 27.272-63.14 34.942-15.8 7.062-64.575 24.968-64.446 26.924z"/>
    <path fill="#4d33ba" d="M64.275 123.112s33.622 3.996 53.66-7.354c20.037-11.35 24.762-18.337 27.849-24.007 3.084-5.67 2.404-12.534 2.404-12.534L56.164 123.12s3.482.41 8.11-.007z"/>
    <path fill="#5e4dbf" d="m-111.204 148.72 36.586-2.255 16.917 15.213-18.366 11.22z"/>
    <path fill="#41b5c1" d="M60.558 193.308s-16.944-13.055-23.446-14.49c-6.503-1.436-27.787-25.913-30.052-26.278-2.268-.362-1.316 13.472.634 18.635 1.953 5.169 8.87 19.745 8.87 19.745s-.203 3.664-3.747 3.23c-3.548-.431-10.946-2.162-17.203-4.917-6.257-2.753-19.404-6.93-22.5-7.826-3.101-.892-4.48 3.25-4.48 3.25l2.586 3.166s1.535 2.374-5.942.133c-7.48-2.238-15.342-1.89-19.109-3.263-3.763-1.373-17.319-5.504-26.576-12.351-9.258-6.85-26.911-17.607-24.836-10.385 2.07 7.222 15.95 22.604 18.622 27.05 2.676 4.443 3.969 7.743 3.969 7.743s-15.85 6.09-13.316 7.934c2.533 1.844 19.198 3.66 19.198 3.66s6.267.66 11.758 4.026c5.494 3.363 11.665 12.136 11.665 12.136s59.705 2.819 65.146 2.056c5.444-.763 48.885-28.854 48.759-33.258z"/>
    <path fill="#9bf8fe" d="M-100.73 164.881s10.521 11.098 14.258 14.868c3.74 3.77 42.817 40.838 45.171 41.358 2.355.521 21.653-6.233 21.653-6.233s-32.044-22.9-36.033-25.522c-3.99-2.623-44.548-26.49-45.049-24.47z"/>
    <path fill="#76e1e5" d="M17.727 162.514c.183 1.837.465 4.121.916 6.638 1.07 5.982.07 20.226 1.33 22.886 1.26 2.662 1.531 4.993 3.13 8.952 1.16 2.885 5.686 10.787 8.08 14.902 13.718-8.694 29.451-19.932 29.378-22.588 0 0-16.947-13.05-23.45-14.486-3.736-.826-12.301-9.212-19.384-16.304z"/>
    <path fill="#5f5cd9" d="M175.898 190.665s-12.676-6.48-17.978-10.677c-5.299-4.201-23.22-10.15-54.479-7.073-31.265 3.08-38.536 10.628-51.348 16.132-12.816 5.504-30.22 17.497-38.258 20.604-8.041 3.104-11.669-3.193-27.3-.165-15.627 3.03-49.584 16.784-49.584 16.784s36.577 6.028 46.816 12.093c10.236 6.065 10.461 4.274 10.461 4.274s-8.329-5.106 1.293-12.517c9.626-7.411 12.733-10.236 29.644-12.623 16.91-2.388 14.672-12.733 28.436-17.6 13.764-4.868 37.16-21.295 60.935-17.84 23.774 3.462 33.957 19.132 33.957 19.132z"/>
    <path fill="#0b0d1b" d="M150.625 197.79s-12.295 10.562-15.458 19c-3.167 8.442-3.528 25.675-25.873 35.035-22.349 9.357-46.375 11.983-61.734 7.859-15.352-4.125-42.204-5.548-56.35-18.552-14.141-13.005-4.661-24.78-4.661-24.78s14.158 7.04 31.938-.182c28.502-13.038 56.468-33.722 87.925-35.469 13.529-.451 34.806 2.742 39.05 7.01 4.245 4.267 5.163 10.08 5.163 10.08z"/>
    <path fill="#76e1e5" d="M79.6 217.31a3.82 3.82 0 0 0-.64.074c-4.575.928-6.624 8.614-11.011 10.448-4.39 1.834-17.959 7.53-15.585 11.134 2.371 3.608 15.877 4.434 26.67 12.269 9.058-.945 6.306-6.609 13.047-10.946 6.745-4.337 11.523-6.008 10.91-8.956-.614-2.95-9.845-3.766-12.435-5.325-2.474-1.482-6.612-8.82-10.956-8.697zm-.291 8.682s2.828 2.593 5.206 3.786c2.37 1.194 6.94 4.417 6.94 4.417s-2.229 1.628-6.423 3.608c-4.195 1.98-7.494 5.938-7.494 5.938-4.685-6.93-11.705-7.08-11.705-7.08s4.891-3.205 7.448-4.522c2.56-1.316 6.028-6.147 6.028-6.147z"/>
  </g>
  <g transform="translate(97.525 51.87) scale(.51485)">
    <g class="character blue" transform="matrix(.2479 0 0 .2479 165.649 41.211)">
      <path fill="#a6c4ef" d="M175.82 173.54s5.458 22.65 2.855 27.728c-2.602 5.078-3.37 10.86-20.229 11.52-16.858.66-18.993.973-24.028-3.163-5.036-4.137-12.974-16.506-12.351-22.672.623-6.166 15.229-14.978 27.902-17.602 12.673-2.624 21.293-.134 25.85 4.19z"/>
      <g>
        <path fill="#4a6e9f" d="M139.122 180.4c-4.097-.033-11.197 2.309-16.849 5.582-.103.33-.174.654-.206.97-.623 6.167 7.315 18.536 12.35 22.673 5.036 4.136 7.171 3.822 24.03 3.163 2.485-.097 4.613-.308 6.457-.61-.197-.44-2.697-1.558-4.204-1.828-1.508-.27-11.349.068-15.416-2.23-3.497-1.977-8.076-9.882-9.285-16.39-1.208-6.508 6.084-10.418 6.084-10.418-.523-.616-1.569-.901-2.96-.912z"/>
        <ellipse cx="259.519" cy="-77.64" fill="#a6c4ef" rx="3.92" ry="3.164" transform="rotate(68.081)"/>
        <ellipse cx="-144.98" cy="210.497" fill="#4a6e9f" rx="3.92" ry="3.164" transform="rotate(-67.913)"/>
        <ellipse cx="126.966" cy="199.474" fill="#4a6e9f" class="left" rx="6.593" ry="6.275"/>
      </g>
      <g class="head" transform="translate(.113 -.227)">
        <path fill="#656ead" d="M178.347 183.399c-2.121-.095 1.164-.21-5.424-6.01-5.66-4.982-35.134 3.617-43.935 11.243-4.113 3.563-.307 4.455-2.885 4.95-2.578.496-6.937-5.624-6.916-11.515.017-5.11 1.675-17.107 26.084-20.368 24.409-3.261 36.307.775 33.076 21.7z" class="head-shadow"/>
        <path fill="#4567ac" d="M124.376 195.229c3.7-3.061-5.278-6.671 16.918-15.401 7.05-2.773 28.083-8.752 32.433-4.237 4.35 4.516 1.833 7.172 4.839 7.667 3.006.495 8.406-6.512 8.27-12.457-.135-5.945-9.62-39.298-46.859-31.889-36.621 7.286-39.39 58.847-15.601 56.317z" class="head-base"/>
        <path fill="#fffdca" d="M125.08 147.53a8.84 8.84 0 0 0-3.679.84 38.693 38.693 0 0 0-6.426 7.936c-.927 3.55-.079 7.272 3.534 9.247 9.294 5.08 20.613-12.844 10.159-17.28-1.226-.52-2.43-.75-3.589-.743zm12.9 16.873c-7.037.052-13.88 5.268-14.778 12.844-.648 5.467 2.427 7.829 6.996 7.982 2.343-1.555 5.837-3.333 11.096-5.401 2.04-.803 5.268-1.873 8.909-2.88 1.351-1.453 1.795-2.712 1.582-3.617-.481-2.045-1.722-6.087-9.913-8.407-1.28-.363-2.59-.53-3.892-.52zm23.158-23.427c-3.61.026-6.904 1.05-8.968 3.172-4.554 4.68-1.41 13.329 7.76 18.073s16.917 3.06 18.675.248c1.138-1.82 1.686-6.493.109-10.906-2.832-3.686-6.536-7.16-11.313-9.69-2.079-.607-4.222-.912-6.263-.897z" class="head-polka"/>
      </g>
      <g fill="#fffc99" class="eyes">
        <path fill="#fffc99" d="M148.824 188.58c-2.053 1.015-3.503-3.377-1.665-4.571s3.718 3.555 1.665 4.57z" class="eyes-base"/>
        <path fill="#fffc99" d="M163.529 184.222c-2.053 1.016-3.503-3.377-1.665-4.57 1.838-1.195 3.718 3.554 1.665 4.57z" class="eyes-base"/>
      </g>
      <g class="ring">
        <animateTransform attributeName="transform" attributeType="XML" calcMode="spline" dur="5s" keySplines=".42,0,.58,1; .42,0,.58,1" keyTimes="0; 0.5; 1" repeatCount="indefinite" type="translate" values="0,0; -1,-3; 0,0"/>
        <path fill="#ffef87" stroke="#fffab0" stroke-linecap="round" stroke-linejoin="round" stroke-width="1.561" d="M146.55 122.61c-.04 0-.078.001-.117.005-.318.034-1.76.346-3.731.793a1.285 1.285 0 0 0-.914-.638c-1.55-.3-2.356.888-2.647 1.459l-.4.093c-.545-.381-1.826-1.152-2.85-.8-.605.207-1.003.98-1.26 1.767l-1.946.462c-.747-.598-1.505-.981-1.601-.175-.185.142-.263.357-.257.622-2.68.645-4.842 1.176-5.355 1.326-.486.141-1.669.425-3.099.778a3.844 3.844 0 0 0-2.499-1.483c-2.31-.36-2.774 2.666-2.774 2.666s-.036-3.481-1.902-3.375v0c-.838-.002-2.015 2.466-1.007 4.547-.708.275-1.271.543-1.603.793-.722 1.355 1.294 4.426 2.192 4.546.188.025 1.712-.286 3.946-.793.38.391.861.712 1.459.81 1.885.307 2.46-1.215 2.46-1.215s1.677 2.214 3.15 1.074c.954-.738 1.88-1.984 2.223-2.917 2.353-.599 4.794-1.24 7.12-1.881 1.014.096 1.8-.49 1.8-.49s1.455 2.544 3.312 1.503c1.375-.77 1.808-2.33 1.941-3.09l.363-.118c.604.578 1.974 1.6 2.857-.007.213-.388.375-.798.493-1.21.809-.346 1.342-.647 1.516-.882 1.503-2.042.332-4.16-.87-4.17z"/>
        <path fill="#ffe376" d="M112.588 131.45c-.722 1.355 1.294 4.426 2.192 4.546.897.12 31.089-7.109 32.64-9.216 1.551-2.108.254-4.298-.987-4.165-1.24.133-19.307 4.427-20.961 4.909-1.654.481-10.991 2.501-12.884 3.926z"/>
        <path fill="#fff6a7" d="M115.197 126.109c-.949-.002-2.335 3.169-.48 5.354 1.854 2.185 2.85 1.724 2.85 1.724s.733 2.517 2.618 2.825c1.885.308 2.46-1.214 2.46-1.214s1.677 2.214 3.15 1.074c1.473-1.14 2.88-3.493 2.179-4.03-.702-.538-1.192.17-3 .729-1.808.558 2.32-1.729.633-3.35-1.687-1.62-2.694.013-2.694.013s-.728-2.056-3.039-2.415c-2.31-.36-2.774 2.666-2.774 2.666s-.036-3.481-1.903-3.375zm15.887-.533c-1.024.783 1.226 3.812 2.773 4.982 1.547 1.17 3.08.027 3.08.027s1.456 2.543 3.314 1.502c1.857-1.041 1.997-3.53 1.997-3.53s2.004 2.424 3.163.315c1.16-2.11.805-4.88.054-4.994-.752-.115-2.83 2.813-2.83 2.813s1.174-3.53-.847-3.921-2.779 1.75-2.779 1.75-1.78-1.457-3.119-.998c-1.338.459-1.67 3.698-1.67 3.698s-2.94-3.285-3.136-1.644z"/>
      </g>
      <ellipse cx="181.024" cy="185.97" fill="#a6c4ef" class="right" rx="6.593" ry="6.275"/>
    </g>
    <g transform="matrix(.21452 0 0 .21452 196.495 44.495)">
      <path fill="#ffea55" fill-opacity=".417" stroke-linecap="round" stroke-linejoin="round" stroke-width="27.085" d="M57.543 81.969a61.897 61.897 0 0 1 45.272-74.601 61.897 61.897 0 0 1 74.882 44.805 61.897 61.897 0 0 1-44.337 75.16 61.897 61.897 0 0 1-75.435-43.867"/>
      <path fill="#f0f9ff" d="m125.966 75.203 9.597-3.83s5.434-22.224 6.301-23.22c.867-.997 3.24-2.827 4.335-1.954 1.095.874 5.369 7.063 4.974 8.534-.394 1.47-2.858 1.999-2.353 3.047.506 1.048 8.863 12.998 8.526 14.228-.336 1.23-11.976 5.527-11.625 6.984.352 1.458 4.367 6.313 3.87 7.27-.496.957-4.67 1.389-4.816 2.489-.146 1.1 3.217 2.565 2.06 3.638-1.158 1.073-17.057 10.967-19.277 10.192-2.22-.775-3.17-4.96-3.74-5.45-.569-.491-8.38 6.224-9.622 5.688-1.241-.535-6.436-11.929-6.436-11.929s10.07-11.765 18.206-15.687z"/>
      <path fill="#b4d6ed" d="M148.825 57.22a.595.595 0 0 0-.005.56c.506 1.048 8.862 12.998 8.526 14.228-.336 1.23-11.976 5.527-11.624 6.985.351 1.457 4.366 6.312 3.87 7.27-.497.957-4.671 1.388-4.817 2.488-.147 1.1 3.218 2.565 2.06 3.638-1.157 1.073-17.057 10.967-19.277 10.192-2.22-.775-3.17-4.96-3.74-5.45-.57-.491-8.38 6.224-9.622 5.689-.607-.262-2.158-3.122-3.586-5.975.505-.648 1.274-1.027 2.956-.667 3.097.663 3.63 1.571 5.476.102 1.847-1.469-.05-3.757 1.344-4.547 1.393-.79 6.761-2.58 8.505-1.39 1.743 1.19.197 3.908 4.47 1.963 4.273-1.944 7.231-4.118 6.774-6.178-.457-2.06 1.003-6.487 1.716-8.724.712-2.237 6.77-4.557 7.396-6.587.627-2.031-4.79-10.252-3.851-11.443.475-.602 1.783-1.723 3.429-2.155z"/>
      <path fill="#f0f9ff" d="m105.32 67.089-3.687-9.652s12.656-19.06 12.801-20.372c.145-1.313-.117-4.298-1.502-4.511-1.385-.214-8.832.84-9.646 2.127-.813 1.286.468 3.456-.645 3.795-1.114.339-15.564 2.295-16.24 3.375-.677 1.081 4.054 12.552 2.744 13.281-1.31.73-7.6 1.069-7.968 2.083-.367 1.013 2.144 4.375 1.435 5.227-.71.853-4.067-.626-4.071.952-.005 1.579 3.497 19.975 5.572 21.082 2.075 1.107 5.795-1.032 6.542-.946.746.086 1.104 10.381 2.34 10.931 1.234.55 13.132-3.354 13.132-3.354s1.825-15.378-.806-24.018z"/>
      <path fill="#b4d6ed" d="M103.05 38.092a.595.595 0 0 1-.409.383c-1.113.34-15.564 2.296-16.24 3.377-.676 1.08 4.053 12.551 2.744 13.28-1.31.73-7.601 1.068-7.969 2.082-.367 1.014 2.145 4.376 1.436 5.229-.71.853-4.067-.628-4.072.95-.004 1.58 3.498 19.975 5.573 21.082 2.074 1.107 5.795-1.03 6.542-.944.747.086 1.104 10.38 2.34 10.93.603.269 3.757-.529 6.823-1.412.133-.81-.109-1.633-1.513-2.626-2.588-1.828-3.616-1.604-3.788-3.957-.171-2.354 2.797-2.51 2.433-4.07-.364-1.56-2.686-6.72-4.743-7.195-2.057-.475-3.007 2.503-4.473-1.956-1.467-4.46-1.874-8.108-.05-9.168 1.825-1.06 4.091-5.135 5.253-7.175 1.161-2.04-1.239-8.066-.17-9.904 1.068-1.837 10.783-3.426 11.023-4.924.12-.757.058-2.479-.74-3.982z"/>
      <path fill="#acaba9" d="m65.46 197.583 38.728-108.297 6.316 2.218-38.863 109.18s-2.224.448-4.073-.613c-1.849-1.062-2.108-2.488-2.108-2.488z"/>
      <path fill="#67c5d8" d="m117.84 83.557-6.107 5.383-5.427-2.043-2.06-10.848s13.72 1.868 13.594 7.508z"/>
      <path fill="#fffea5" d="M-942.024 95.6a.818.818 0 0 0-.38.067l-3.96 1.73-3.745-.916a.818.818 0 0 0-1.01.875l.424 4.3-2.029 3.281a.818.818 0 0 0 .522 1.23l4.22.927 2.493 2.941a.818.818 0 0 0 1.33-.115l2.187-3.727 3.568-1.46a.818.818 0 0 0 .3-1.303l-2.869-3.23-.287-3.845a.818.818 0 0 0-.764-.755z" color="#000" style="-inkscape-stroke:none" transform="scale(-2.8221 2.8221) rotate(-50.634 -576.453 -892.397)"/>
      <path fill="#ecdc71" d="M-948.255 103.976c-.264-.002-.595.045-1.109.087-.976.08-2.03-.034-2.848.046l-.512.828a.818.818 0 0 0 .522 1.23l4.22.927 2.493 2.941a.818.818 0 0 0 1.329-.115l.147-.251c.107-.662.114-2.231-1.662-3.842-1.68-1.525-1.908-1.846-2.58-1.85z" color="#000" style="-inkscape-stroke:none" transform="scale(-2.8221 2.8221) rotate(-50.634 -576.453 -892.397)"/>
      <path fill="#f0ec53" d="M-942.976 103.346c-.517.016-.801.568-1.168 1.267-.522.995.682 2.161 1.122 2.981a.417.417 0 0 0 .195.055l.855-1.456 2.5-1.024c-.642-.494-1.911-1.01-2.699-1.527-.325-.213-.586-.302-.805-.296zm-7.964-4.18.245 2.49-1.562 2.526c1.11.293 3.135.002 4.019-.243 1.133-.312.871-2.852.576-3.794-.215-.688-1.975-.918-3.278-.98z" color="#000" style="-inkscape-stroke:none" transform="scale(-2.8221 2.8221) rotate(-50.634 -576.453 -892.397)"/>
      <g transform="scale(-2.8221 2.8221) rotate(-20.848 -1735.997 -1542.95)">
        <rect width="4.072" height="4.12" x="-711.899" y="534.179" fill="#be9b6e" ry=".33"/>
        <rect width="2.309" height="2.336" x="-711.1" y="535.129" fill="#4cb8e0" ry=".425"/>
      </g>
      <path fill="#be9b6e" d="m113.264 88.13.182 2.574-2.763.95-6.727-2.492-.663-2.994 1.737-1.383z"/>
    </g>
  </g>
  <path fill="#3237a3" fill-opacity=".843" stroke-width="3.674" d="M119.045 92.537a68.902 50.825 0 0 0-14.539 1.474 68.902 50.825 0 0 0-49.123 34.144 19.249 20.45 0 0 0-6.026.54 19.249 20.45 0 0 0-11.934 9.46 37.238 29.294 0 0 0-18.628-.15A37.238 29.294 0 0 0-9.37 168.464a26.16 25.499 0 0 0-9.39 11.658 44.715 19.745 0 0 0-15.153.485 44.715 19.745 0 0 0-29.357 10.468 38.24 26.366 0 0 0-43.704-14.249 38.24 26.366 0 0 0-9.149 2.48 15.637 13.23 0 0 0-18.79-9.203 15.637 13.23 0 0 0-3.365 1.073 23.967 18.69 0 0 0-21.108-3.788 23.967 18.69 0 0 0-17.533 22.522l.147.452a23.967 18.69 0 0 0 17.438 13.315 16.177 11.952 0 0 0 .44 2.62l.103.29a16.177 11.952 0 0 0 19.716 8.47 16.177 11.952 0 0 0 6.132-2.297 38.24 26.366 0 0 0 31.885 15.916 40.537 27.306 0 0 0 .286.952l.25.661a40.537 27.306 0 0 0 46.144 19.822 49.417 29.4 0 0 0 1.197 4.549l.302.709a49.417 29.4 0 0 0 60.23 20.836 49.417 29.4 0 0 0 33.91-18.327 42.43 23.11 0 0 0 22.69.188 42.43 23.11 0 0 0 30.775-17.548 46.688 32.388 0 0 0 32.124 2.186 46.688 32.388 0 0 0 15.192-4.912 38.366 28.475 0 0 0 37.477 7.91 38.366 28.475 0 0 0 14.513-5.463 50.784 31.473 0 0 0 40.489 4.067 50.784 31.473 0 0 0 37.888-31.961 23.537 21.398 0 0 0 15.174-25.521 23.537 21.398 0 0 0-28.475-15.494 23.537 21.398 0 0 0-13.289 8.109 29.04 20.917 0 0 0-29.753-11.18 43.502 29.69 0 0 0-27.024-16.523 68.902 50.825 0 0 0-1.18-20.936 68.902 50.825 0 0 0-68.816-38.263z">
    <animateTransform attributeName="transform" attributeType="XML" calcMode="spline" dur="10s" keySplines=".42,0,.58,1; .42,0,.58,1" keyTimes="0; 0.5; 1" repeatCount="indefinite" type="translate" values="0,0; 4,-3; 0,0"/>
  </path>
  <rect width="500" height="200" x="0" y="0" fill="#fffccd" fill-opacity="0" rx="0" ry="0">
    <animate attributeName="fill-opacity" values=".484;0;0" keyTimes="0;0.08;1" dur="20s" repeatCount="indefinite" calcMode="linear" />
  </rect>
</svg>
